<?xml version="1.0" encoding="UTF-8" standalone="no"?>
<!-- Created with Inkscape (http://www.inkscape.org/) -->

<svg
   xmlns:dc="http://purl.org/dc/elements/1.1/"
   xmlns:cc="http://creativecommons.org/ns#"
   xmlns:rdf="http://www.w3.org/1999/02/22-rdf-syntax-ns#"
   xmlns:svg="http://www.w3.org/2000/svg"
   xmlns="http://www.w3.org/2000/svg"
   xmlns:sodipodi="http://sodipodi.sourceforge.net/DTD/sodipodi-0.dtd"
   xmlns:inkscape="http://www.inkscape.org/namespaces/inkscape"
   version="1.1"
   id="svg3713"
   xml:space="preserve"
   width="1020"
   height="342"
   viewBox="0 0 1020 342.00001"
   sodipodi:docname="LegacyLogo_Vecctorized.svg"
   inkscape:version="0.92.3 (2405546, 2018-03-11)"><metadata
     id="metadata3719"><rdf:RDF><cc:Work
         rdf:about=""><dc:format>image/svg+xml</dc:format><dc:type
           rdf:resource="http://purl.org/dc/dcmitype/StillImage" /><dc:title></dc:title></cc:Work></rdf:RDF></metadata><defs
     id="defs3717"><clipPath
       clipPathUnits="userSpaceOnUse"
       id="clipPath3737"><path
         d="M 0,850.39 H 850.39 V 0 H 0 Z"
         id="path3735"
         inkscape:connector-curvature="0" /></clipPath><radialGradient
       fx="0"
       fy="0"
       cx="0"
       cy="0"
       r="1"
       gradientUnits="userSpaceOnUse"
       gradientTransform="matrix(0,54.607693,-55.372204,0,286.43164,333.15527)"
       spreadMethod="pad"
       id="radialGradient3801"><stop
         style="stop-opacity:1;stop-color:#ffffff"
         offset="0"
         id="stop3793" /><stop
         style="stop-opacity:1;stop-color:#ffffff"
         offset="0.28"
         id="stop3795" /><stop
         style="stop-opacity:1;stop-color:#425d44"
         offset="0.8"
         id="stop3797" /><stop
         style="stop-opacity:1;stop-color:#425d44"
         offset="1"
         id="stop3799" /></radialGradient><radialGradient
       fx="0"
       fy="0"
       cx="0"
       cy="0"
       r="1"
       gradientUnits="userSpaceOnUse"
       gradientTransform="matrix(0,159.1413,-161.36928,0,160.9375,410.80664)"
       spreadMethod="pad"
       id="radialGradient3825"><stop
         style="stop-opacity:1;stop-color:#ffffff"
         offset="0"
         id="stop3817" /><stop
         style="stop-opacity:1;stop-color:#ffffff"
         offset="0.28"
         id="stop3819" /><stop
         style="stop-opacity:1;stop-color:#425d44"
         offset="0.8"
         id="stop3821" /><stop
         style="stop-opacity:1;stop-color:#425d44"
         offset="1"
         id="stop3823" /></radialGradient><clipPath
       clipPathUnits="userSpaceOnUse"
       id="clipPath3835"><path
         d="M 0,850.39 H 850.39 V 0 H 0 Z"
         id="path3833"
         inkscape:connector-curvature="0" /></clipPath><clipPath
       clipPathUnits="userSpaceOnUse"
       id="clipPath3843"><path
         d="M 104.749,362.989 H 257.562 V 322.923 H 104.749 Z"
         id="path3841"
         inkscape:connector-curvature="0" /></clipPath><radialGradient
       fx="0"
       fy="0"
       cx="0"
       cy="0"
       r="1"
       gradientUnits="userSpaceOnUse"
       gradientTransform="matrix(0,153.76456,-155.91727,0,147.6875,396.97754)"
       spreadMethod="pad"
       id="radialGradient3873"><stop
         style="stop-opacity:1;stop-color:#ffffff"
         offset="0"
         id="stop3865" /><stop
         style="stop-opacity:1;stop-color:#ffffff"
         offset="0.28"
         id="stop3867" /><stop
         style="stop-opacity:1;stop-color:#425d44"
         offset="0.8"
         id="stop3869" /><stop
         style="stop-opacity:1;stop-color:#425d44"
         offset="1"
         id="stop3871" /></radialGradient><radialGradient
       fx="0"
       fy="0"
       cx="0"
       cy="0"
       r="1"
       gradientUnits="userSpaceOnUse"
       gradientTransform="matrix(0,52.854542,-53.594509,0,183.08691,352.30078)"
       spreadMethod="pad"
       id="radialGradient3897"><stop
         style="stop-opacity:1;stop-color:#ffffff"
         offset="0"
         id="stop3889" /><stop
         style="stop-opacity:1;stop-color:#ffffff"
         offset="0.28"
         id="stop3891" /><stop
         style="stop-opacity:1;stop-color:#738c75"
         offset="0.8"
         id="stop3893" /><stop
         style="stop-opacity:1;stop-color:#738c75"
         offset="1"
         id="stop3895" /></radialGradient><radialGradient
       fx="0"
       fy="0"
       cx="0"
       cy="0"
       r="1"
       gradientUnits="userSpaceOnUse"
       gradientTransform="matrix(0,56.083637,-56.868813,0,163.94629,559.38184)"
       spreadMethod="pad"
       id="radialGradient3921"><stop
         style="stop-opacity:1;stop-color:#ffffff"
         offset="0"
         id="stop3913" /><stop
         style="stop-opacity:1;stop-color:#ffffff"
         offset="0.28"
         id="stop3915" /><stop
         style="stop-opacity:1;stop-color:#425d44"
         offset="0.8"
         id="stop3917" /><stop
         style="stop-opacity:1;stop-color:#425d44"
         offset="1"
         id="stop3919" /></radialGradient><radialGradient
       fx="0"
       fy="0"
       cx="0"
       cy="0"
       r="1"
       gradientUnits="userSpaceOnUse"
       gradientTransform="matrix(0,138.81973,-140.76321,0,162.78027,378.76562)"
       spreadMethod="pad"
       id="radialGradient3945"><stop
         style="stop-opacity:1;stop-color:#ffffff"
         offset="0"
         id="stop3937" /><stop
         style="stop-opacity:1;stop-color:#ffffff"
         offset="0.28"
         id="stop3939" /><stop
         style="stop-opacity:1;stop-color:#425d44"
         offset="0.805234"
         id="stop3941" /><stop
         style="stop-opacity:1;stop-color:#425d44"
         offset="1"
         id="stop3943" /></radialGradient><clipPath
       clipPathUnits="userSpaceOnUse"
       id="clipPath3955"><path
         d="M 0,850.39 H 850.39 V 0 H 0 Z"
         id="path3953"
         inkscape:connector-curvature="0" /></clipPath><clipPath
       clipPathUnits="userSpaceOnUse"
       id="clipPath3963"><path
         d="m 144.005,509.051 h 32.853 V 399.472 h -32.853 z"
         id="path3961"
         inkscape:connector-curvature="0" /></clipPath><radialGradient
       fx="0"
       fy="0"
       cx="0"
       cy="0"
       r="1"
       gradientUnits="userSpaceOnUse"
       gradientTransform="matrix(0,89.06929,-90.316269,0,117.4668,485.23242)"
       spreadMethod="pad"
       id="radialGradient3993"><stop
         style="stop-opacity:1;stop-color:#ffffff"
         offset="0"
         id="stop3985" /><stop
         style="stop-opacity:1;stop-color:#ffffff"
         offset="0.28"
         id="stop3987" /><stop
         style="stop-opacity:1;stop-color:#425d44"
         offset="0.8"
         id="stop3989" /><stop
         style="stop-opacity:1;stop-color:#425d44"
         offset="1"
         id="stop3991" /></radialGradient></defs><sodipodi:namedview
     pagecolor="#ffffff"
     bordercolor="#666666"
     borderopacity="1"
     objecttolerance="10"
     gridtolerance="10"
     guidetolerance="10"
     inkscape:pageopacity="0"
     inkscape:pageshadow="2"
     inkscape:window-width="1920"
     inkscape:window-height="1017"
     id="namedview3715"
     showgrid="false"
     inkscape:zoom="0.74789218"
     inkscape:cx="469.13815"
     inkscape:cy="454.27632"
     inkscape:window-x="-8"
     inkscape:window-y="-8"
     inkscape:window-maximized="1"
     inkscape:current-layer="g3721" /><g
     id="g3721"
     inkscape:groupmode="layer"
     inkscape:label="legacy"
     transform="matrix(1.3333333,0,0,-1.3333333,0,342.00003)"><g
       id="g4084"
       transform="translate(-52.956,-291.21498)"><g
         transform="translate(333.8906,457.9561)"
         id="g3723"><path
           inkscape:connector-curvature="0"
           id="path3725"
           style="fill:#231f20;fill-opacity:1;fill-rule:nonzero;stroke:none"
           d="M 0,0 V -73.01 H 45.475 V -88.423 H -16.674 V 0 Z" /></g><g
         transform="translate(457.0332,369.5332)"
         id="g3727"><path
           inkscape:connector-curvature="0"
           id="path3729"
           style="fill:#231f20;fill-opacity:1;fill-rule:nonzero;stroke:none"
           d="M 0,0 H -66.191 V 88.423 H 0 V 72.255 H -49.645 V 51.916 H -1.771 V 36.379 H -49.645 V 16.423 H 0 Z" /></g><g
         id="g3731"><g
           clip-path="url(#clipPath3737)"
           id="g3733"><g
             transform="translate(535.584,436.3564)"
             id="g3739"><path
               inkscape:connector-curvature="0"
               id="path3741"
               style="fill:#231f20;fill-opacity:1;fill-rule:nonzero;stroke:none"
               d="m 0,0 c -5.941,5.684 -14.781,8.84 -22.488,8.84 -18.945,0 -30.44,-14.398 -30.44,-32.588 0,-14.525 8.463,-29.561 30.44,-29.561 6.951,0 13.014,1.516 19.961,7.075 v 15.663 h -22.615 v 14.908 h 37.901 v -37.268 c -8.718,-9.978 -19.71,-15.914 -35.247,-15.914 -33.221,0 -46.736,21.855 -46.736,45.097 0,24.884 15.536,47.874 46.736,47.874 11.877,0 23.749,-4.547 32.843,-13.515 z" /></g><g
             transform="translate(601.625,439.3882)"
             id="g3743"><path
               inkscape:connector-curvature="0"
               id="path3745"
               style="fill:#231f20;fill-opacity:1;fill-rule:nonzero;stroke:none"
               d="m 0,0 -16.42,-37.645 h 32.843 z m 23.119,-53.182 h -46.235 l -7.579,-16.673 H -48.757 L -9.096,18.568 H 9.095 L 48.762,-69.855 H 30.571 Z" /></g><g
             transform="translate(730.5801,380.6484)"
             id="g3747"><path
               inkscape:connector-curvature="0"
               id="path3749"
               style="fill:#231f20;fill-opacity:1;fill-rule:nonzero;stroke:none"
               d="m 0,0 c -9.095,-8.968 -20.844,-13.137 -33.604,-13.137 -32.842,0 -46.74,22.611 -46.863,45.603 -0.128,23.115 14.904,46.611 46.863,46.611 12,0 23.372,-4.548 32.466,-13.518 L -12.255,54.823 c -5.811,5.683 -13.642,8.337 -21.349,8.337 -21.349,0 -30.571,-15.916 -30.444,-30.694 0.128,-14.654 8.59,-29.94 30.444,-29.94 7.707,0 16.423,3.161 22.232,8.969 z" /></g><g
             transform="translate(773.251,421.4492)"
             id="g3751"><path
               inkscape:connector-curvature="0"
               id="path3753"
               style="fill:#231f20;fill-opacity:1;fill-rule:nonzero;stroke:none"
               d="M 0,0 23.497,36.507 H 43.581 V 35.75 L 8.339,-15.408 V -51.916 H -8.339 v 36.508 L -42.315,35.75 v 0.757 h 19.827 z" /></g><g
             transform="translate(450.0273,331.4785)"
             id="g3755"><path
               inkscape:connector-curvature="0"
               id="path3757"
               style="fill:#425d44;fill-opacity:1;fill-rule:nonzero;stroke:none"
               d="m 0,0 c -1.853,-1.854 -4.315,-2.777 -6.746,-2.777 -6.246,0 -9.5,4.365 -9.525,9.363 -0.052,4.947 3.174,9.577 9.525,9.577 2.431,0 4.893,-0.924 6.746,-2.776 L -0.979,12.54 c -1.588,1.589 -3.677,2.354 -5.767,2.354 -5.4,0 -8.176,-3.811 -8.15,-8.254 0.054,-4.337 2.806,-8.097 8.15,-8.097 2.09,0 4.206,0.791 5.795,2.353 z" /></g><g
             transform="translate(485.875,334.7822)"
             id="g3759"><path
               inkscape:connector-curvature="0"
               id="path3761"
               style="fill:#425d44;fill-opacity:1;fill-rule:nonzero;stroke:none"
               d="M 0,0 -4.976,11.271 -9.951,0 Z m 2.594,-5.872 -2.038,4.553 h -11.062 l -2.008,-4.553 h -1.539 L -5.74,12.65 h 1.561 L 4.129,-5.872 Z" /></g><g
             transform="translate(514.7119,346.1084)"
             id="g3763"><path
               inkscape:connector-curvature="0"
               id="path3765"
               style="fill:#425d44;fill-opacity:1;fill-rule:nonzero;stroke:none"
               d="m 0,0 v -9.501 h 6.691 c 6.169,0 6.169,9.501 0,9.501 z m 0,-10.793 v -6.405 H -1.429 V 1.324 h 8.12 c 8.044,0 8.044,-12.117 0,-12.117 z" /></g><path
             inkscape:connector-curvature="0"
             id="path3767"
             style="fill:#425d44;fill-opacity:1;fill-rule:nonzero;stroke:none"
             d="m 551.803,347.433 h 1.401 v -18.522 h -1.401 z" /><g
             transform="translate(584.5771,346.1348)"
             id="g3769"><path
               inkscape:connector-curvature="0"
               id="path3771"
               style="fill:#425d44;fill-opacity:1;fill-rule:nonzero;stroke:none"
               d="M 0,0 H -6.696 V 1.271 H 8.121 V 0 H 1.429 V -17.225 H 0 Z" /></g><g
             transform="translate(628.7275,334.7822)"
             id="g3773"><path
               inkscape:connector-curvature="0"
               id="path3775"
               style="fill:#425d44;fill-opacity:1;fill-rule:nonzero;stroke:none"
               d="M 0,0 -4.976,11.271 -9.951,0 Z m 2.595,-5.872 -2.039,4.553 h -11.062 l -2.008,-4.553 h -1.538 L -5.74,12.65 h 1.56 L 4.128,-5.872 Z" /></g><g
             transform="translate(658.1201,347.4326)"
             id="g3777"><path
               inkscape:connector-curvature="0"
               id="path3779"
               style="fill:#425d44;fill-opacity:1;fill-rule:nonzero;stroke:none"
               d="m 0,0 v -17.175 h 10.424 v -1.347 H -1.43 V 0 Z" /></g></g></g><g
         id="g3781"><g
           id="g3783"><g
             id="g3789"><g
               id="g3791"><path
                 inkscape:connector-curvature="0"
                 id="path3803"
                 style="fill:url(#radialGradient3801);stroke:none"
                 d="m 251.798,337.29 c -3.763,-5.135 -7.979,-9.924 -12.594,-14.33 v 0 c 32.187,2.805 37.399,10.361 27.653,17.808 v 0 c -3.592,-1.365 -8.548,-2.549 -15.059,-3.478" /></g></g></g></g><g
         id="g3807"><g
           id="g3813"><g
             id="g3815"><path
               d="m 106.97,352.012 c -37.269,-34.395 26.503,-60.278 28.267,-3.579 v 0 c 7.372,2.294 14.937,2.932 22.682,2.468 v 0 c -1.274,-8.721 -3.802,-17.508 -8.022,-26.41 v 0 c -5.886,-12.438 -13.224,-21.151 -21.063,-26.786 v 0 c 10.696,-3.423 22.105,-5.271 33.949,-5.271 v 0 c 28.221,0 53.956,10.498 73.411,27.75 v 0 c 9.715,8.613 17.858,18.91 23.967,30.425 v 0 c -20.889,7.476 -61.063,16.521 -96.36,16.52 v 0 c -23.468,0 -44.783,-4 -56.831,-15.117"
               style="fill:url(#radialGradient3825);stroke:none"
               id="path3827"
               inkscape:connector-curvature="0" /></g></g></g><g
         id="g3829"><g
           clip-path="url(#clipPath3835)"
           id="g3831"><g
             id="g3837"><g
               id="g3839" /><g
               id="g3851"><g
                 style="opacity:0.25"
                 id="g3849"
                 clip-path="url(#clipPath3843)"><g
                   id="g3847"
                   transform="translate(239.2036,322.96)"><path
                     inkscape:connector-curvature="0"
                     id="path3845"
                     style="fill:#0e0f0e;fill-opacity:1;fill-rule:evenodd;stroke:none"
                     d="m 0,0 c -3.956,26.912 -97.03,49.418 -120.233,28.005 -21.226,-19.592 7.497,-34.468 11.88,2.431 6.985,2.212 14.18,2.949 21.561,2.686 l -0.359,-2.432 c -6.435,0.082 -12.753,-0.673 -18.93,-2.603 -5.303,-48.771 -45.409,-24.108 -20.027,-0.684 25.842,23.854 114.145,8.978 144.467,-4.379 C 13.306,14.54 7.124,6.802 0,0" /></g></g></g></g></g></g><g
         id="g3853"><g
           id="g3855"><g
             id="g3861"><g
               id="g3863"><path
                 inkscape:connector-curvature="0"
                 id="path3875"
                 style="fill:url(#radialGradient3873);stroke:none"
                 d="m 106.97,352.012 c -37.269,-34.395 26.503,-60.278 28.267,-3.579 v 0 l -2.114,2.614 c -5.304,-48.77 -45.409,-24.108 -20.027,-0.683 v 0 c 25.841,23.852 114.144,8.977 144.467,-4.38 v 0 c 20.005,-8.813 21.453,-19.555 -18.359,-23.024 v 0 c -0.983,-0.947 -1.99,-1.874 -3.01,-2.776 v 0 c 62.022,3.342 55.904,18.992 23.967,30.425 v 0 c -20.889,7.476 -61.063,16.521 -96.36,16.52 v 0 c -23.468,0 -44.783,-4 -56.831,-15.117" /></g></g></g></g><g
         id="g3877"><g
           id="g3879"><g
             id="g3885"><g
               id="g3887"><path
                 inkscape:connector-curvature="0"
                 id="path3899"
                 style="fill:url(#radialGradient3897);stroke:none"
                 d="m 133.123,351.047 2.114,-2.614 c 7.372,2.294 14.937,2.932 22.682,2.468 v 0 l -2.114,2.613 c -1.563,0.095 -3.118,0.145 -4.667,0.145 v 0 c -6.125,0 -12.135,-0.781 -18.015,-2.612" /></g></g></g></g><g
         id="g3901"><g
           id="g3903"><g
             id="g3909"><g
               id="g3911"><path
                 inkscape:connector-curvature="0"
                 id="path3923"
                 style="fill:url(#radialGradient3921);stroke:none"
                 d="m 151.271,529.38 c 2.617,-4.042 5.239,-10.597 7.719,-20.393 v 0 c 1.26,0.046 2.528,0.064 3.793,0.064 v 0 c 4.773,0 9.469,-0.301 14.075,-0.874 v 0 c -5.073,22.317 -10.815,30.166 -16.018,30.166 v 0 c -3.574,-10e-4 -6.894,-3.703 -9.569,-8.963" /></g></g></g></g><g
         id="g3927"><g
           id="g3933"><g
             id="g3935"><path
               d="M 93.246,484.579 C 68.658,464.722 52.956,434.542 52.956,400.746 v 0 c 0,-18.536 4.716,-35.971 13.039,-51.219 v 0 c -9.074,-23.152 -0.281,-53.915 27.067,-58.312 v 0 c -17.901,5.762 -29.738,24.953 -20.359,47.549 v 0 c 4.762,11.472 14.981,23.818 32.647,35.735 v 0 c 39.353,26.548 118.153,22.378 165.75,8.23 v 0 c 0.997,5.863 1.506,11.871 1.506,18.017 v 0 c 0,53.908 -39.939,98.623 -92.236,106.93 v 0 c -5.724,0.901 -11.594,1.375 -17.587,1.375 v 0 c -9.199,0 -18.135,-1.111 -26.671,-3.213 v 0 c -3.83,-38.024 10.894,-72.442 18.526,-106.367 v 0 c -9.451,-0.874 -18.715,-2.739 -27.82,-5.426 v 0 c -14.112,43.001 -36.945,90.781 -27.246,136.983 v 0 c -5.19,-14.881 -6.797,-30.571 -6.326,-46.449"
               style="fill:url(#radialGradient3945);stroke:none"
               id="path3947"
               inkscape:connector-curvature="0" /></g></g></g><g
         id="g3949"><g
           clip-path="url(#clipPath3955)"
           id="g3951"><g
             id="g3957"><g
               id="g3959" /><g
               id="g3971"><g
                 style="opacity:0.25"
                 id="g3969"
                 clip-path="url(#clipPath3963)"><g
                   id="g3967"
                   transform="translate(154.6377,399.4717)"><path
                     inkscape:connector-curvature="0"
                     id="path3965"
                     style="fill:#0e0f0e;fill-opacity:1;fill-rule:evenodd;stroke:none"
                     d="m 0,0 c -6.591,33.869 -13.349,70.167 -9.519,108.187 5.752,0.918 11.656,1.392 17.665,1.392 4.772,0 9.468,-0.3 14.075,-0.874 C -3.458,96.105 -5.604,33.942 0,0" /></g></g></g></g></g></g><g
         id="g3975"><g
           id="g3981"><g
             id="g3983"><path
               d="m 136.112,505.838 c -3.83,-38.024 10.894,-72.442 18.526,-106.367 v 0 c -6.592,33.87 -13.35,70.168 -9.519,108.188 v 0 c 2.17,21.621 19.046,56.353 31.739,0.518 v 0 c 1.173,-0.15 2.354,-0.318 3.512,-0.501 v 0 c -5.868,28.133 -14.557,39.633 -22.735,39.631 v 0 c -9.898,-0.003 -19.047,-16.859 -21.523,-41.469"
               style="fill:url(#radialGradient3993);stroke:none"
               id="path3995"
               inkscape:connector-curvature="0" /></g></g></g></g></g></svg>